<?xml version="1.0" encoding="utf-8"?>
<!-- Generator: Adobe Illustrator 21.1.0, SVG Export Plug-In . SVG Version: 6.00 Build 0)  -->
<svg version="1.1" id="Layer_1" xmlns="http://www.w3.org/2000/svg" xmlns:xlink="http://www.w3.org/1999/xlink" x="0px" y="0px"
	 viewBox="0 0 50 50" style="enable-background:new 0 0 50 50;" xml:space="preserve">
<style type="text/css">
	.st0{fill:#005793;}
	.st1{fill:#FFFFFF;}
</style>
<circle class="st0" cx="25" cy="25" r="23"/>
<g>
	<path class="st1" d="M28.7,21.5v-10c0-0.3-0.2-0.6-0.5-0.6h-6.4c-0.3,0-0.5,0.2-0.5,0.6v10c0,0.3-0.2,0.6-0.5,0.6h-2.2
		c-0.4,0-0.6,0.6-0.3,1l6.3,7.2c0.2,0.2,0.5,0.2,0.7,0l6.3-7.2c0.3-0.4,0.1-1-0.3-1h-2.2C28.9,22,28.7,21.8,28.7,21.5z"/>
	<polygon class="st1" points="34.7,27.3 34.7,33 15.3,33 15.3,27.3 9.4,27.3 9.4,37 40.6,37 40.6,27.3 	"/>
</g>
</svg>
