<?xml version="1.0" encoding="utf-8"?>
<!-- Generator: Adobe Illustrator 22.0.1, SVG Export Plug-In . SVG Version: 6.00 Build 0)  -->
<svg version="1.1" id="Layer_1" xmlns="http://www.w3.org/2000/svg" xmlns:xlink="http://www.w3.org/1999/xlink" x="0px" y="0px"
	 viewBox="0 0 900 500" style="enable-background:new 0 0 900 500;" xml:space="preserve">
<style type="text/css">
	.st0{opacity:0.3;}
	.st1{opacity:0.3;fill:none;stroke:#000000;stroke-width:14.1289;stroke-miterlimit:10;enable-background:new    ;}
</style>
<title>image-missing</title>
<g class="st0">
	<path d="M590.3,309.7l-92.5-112.3c-2.3-3.1-6.8-3.8-9.9-1.4c-0.5,0.4-1,0.9-1.4,1.4l-54,65.6c-2.3,3.1-6.8,3.8-9.9,1.4
		c-0.5-0.4-1-0.9-1.4-1.4L397.5,234c-2.3-3.1-6.8-3.8-9.9-1.4c-0.5,0.4-1,0.9-1.4,1.4l-62.4,75.7c-2.7,2.8-2.7,7.2,0,10
		c1.5,1.5,3.5,2.2,5.6,2h255.2c3.9,0.4,7.3-2.5,7.7-6.4C592.5,313.2,591.8,311.1,590.3,309.7z"/>
	<circle cx="353.2" cy="194.9" r="16.6"/>
</g>
<path class="st1" d="M93.5,86.4h713c9.8,0,17.7,7.9,17.7,17.7v291.7c0,9.8-7.9,17.7-17.7,17.7h-713c-9.8,0-17.7-7.9-17.7-17.7V104.2
	C75.8,94.4,83.7,86.4,93.5,86.4z"/>
</svg>
