<svg xmlns="http://www.w3.org/2000/svg" viewBox="0 0 750 750"><defs><style>.cls-1{fill:#005793;}.cls-2{fill:#74bbe2;}.cls-3{fill:#fff;}</style></defs><title>j29-logo</title><g id="Stage_3" data-name="Stage 3"><rect class="cls-1" x="18.89" y="18.89" width="712.22" height="712.22" rx="150" ry="150"/><path class="cls-2" d="M200.1,525.66a31,31,0,1,0,0,23.77h82.77V525.66Zm-28.63,28.26a16.37,16.37,0,1,1,16.37-16.37A16.37,16.37,0,0,1,171.46,553.92Z"/><path class="cls-3" d="M331.3,168.05v57.32H537C528.15,257,512.48,306.18,489.6,355c-21.83,46.6-45.69,83.4-70.93,109.39-19.89,20.48-39.94,33.77-60.68,40.15a44.25,44.25,0,0,0-59.77.87c-22.59-5.9-39.08-19.18-50-40.13a110.44,110.44,0,0,1-7.8-19.49A44.28,44.28,0,1,0,183.48,455a172.83,172.83,0,0,0,12.71,34.41c11.11,22.23,26.57,40.06,46,53a139.2,139.2,0,0,0,50,20.38,44.27,44.27,0,0,0,73.52-1c33.32-8.13,64.86-27.36,94.13-57.51,29.69-30.57,57.18-72.63,81.72-125,40.83-87.16,59.7-172.94,60.49-176.55l7.54-34.74ZM206.58,445.91a28.66,28.66,0,1,1,28.66-28.66A28.66,28.66,0,0,1,206.58,445.91Zm122,120.41a28.66,28.66,0,1,1,28.66-28.66A28.66,28.66,0,0,1,328.57,566.32Z"/></g></svg>