<svg id="Layer_2" data-name="Layer 2" xmlns="http://www.w3.org/2000/svg" viewBox="0 0 38.23 9.59"><defs><style>.cls-1{fill:#fff;}</style></defs><title>mobile-menu-link</title><path class="cls-1" d="M5.88,7.37H7.15l1.42,4h0l1.38-4h1.25v5.14h-.86v-4h0l-1.43,4H8.18l-1.43-4h0v4H5.88Z" transform="translate(-5.88 -5.2)"/><path class="cls-1" d="M12.3,7.37H16v.78H13.2V9.49H15.8v.73H13.2v1.5h2.85v.78H12.3Z" transform="translate(-5.88 -5.2)"/><path class="cls-1" d="M16.8,7.37h1l2.35,3.79h0V7.37H21v5.14H20L17.68,8.73h0v3.78H16.8Z" transform="translate(-5.88 -5.2)"/><path class="cls-1" d="M22,7.37h.9v3c0,.17,0,.35,0,.53a1.2,1.2,0,0,0,.14.48.92.92,0,0,0,.36.35,1.76,1.76,0,0,0,1.36,0,.92.92,0,0,0,.36-.35,1.2,1.2,0,0,0,.14-.48c0-.18,0-.35,0-.53v-3h.9v3.29a2.27,2.27,0,0,1-.15.86,1.67,1.67,0,0,1-.43.62,1.79,1.79,0,0,1-.67.37,3.12,3.12,0,0,1-1.73,0,1.79,1.79,0,0,1-.67-.37,1.67,1.67,0,0,1-.43-.62,2.27,2.27,0,0,1-.15-.86Z" transform="translate(-5.88 -5.2)"/><rect class="cls-1" x="26.56" y="3.85" width="11.67" height="1.89"/><rect class="cls-1" x="26.56" y="7.71" width="11.67" height="1.89"/><rect class="cls-1" x="26.56" width="11.67" height="1.89"/></svg>